<svg xmlns="http://www.w3.org/2000/svg" width="76" height="18" fill="none" viewBox="0 0 76 18">
  <path fill="#192122" d="M60.754.197c.92 0 1.326.453 1.217 1.358l-.164 1.264c-.11.794-.577 1.191-1.404 1.191h-1.685c-.905 0-1.303-.453-1.193-1.358l.163-1.264c.078-.794.539-1.191 1.381-1.191h1.685Zm.608 5.339L59.748 17.38h-4.236l1.615-11.845h4.235Z"/>
  <path fill="#192122" fill-rule="evenodd" d="M11.962 1.15C11.119.88 10.004.745 8.615.745 7.71.745 6.9.753 6.182.769c-.702 0-1.366.016-1.99.047-.608.016-1.232.056-1.872.12L.05 17.38c.734.048 1.451.087 2.153.12.702.031 1.475.047 2.317.047.843.016 1.841.024 2.995.024 1.31 0 2.387-.111 3.23-.334.842-.238 1.49-.651 1.942-1.24.453-.603.757-1.453.913-2.55.187-1.334.062-2.39-.375-3.17-.436-.794-1.279-1.247-2.527-1.358l.024-.143c1.091-.095 1.872-.429 2.34-1.001.483-.572.803-1.43.96-2.574.14-1.16.046-2.058-.282-2.693-.327-.652-.92-1.105-1.778-1.359Zm-3.51 2.765c.608 0 1.006.111 1.193.334.203.206.265.62.187 1.239-.125.81-.335 1.343-.632 1.597-.28.254-.787.381-1.52.381H5.713l.491-3.551h2.247Zm-3.136 6.34h2.27c.764 0 1.256.127 1.474.381.218.254.273.787.164 1.597-.094.588-.226 1.04-.398 1.358a1.218 1.218 0 0 1-.749.644c-.343.111-.803.167-1.38.167H4.753l.562-4.147Zm20.556-4.553c-.826-.333-2.004-.5-3.533-.5-1.373 0-2.543.167-3.51.5-.968.318-1.732.922-2.294 1.812-.561.874-.936 2.145-1.123 3.813-.14 1.383-.062 2.543.234 3.48.296.938.897 1.652 1.802 2.145.905.477 2.192.715 3.861.715.874 0 1.787-.071 2.738-.214a9.938 9.938 0 0 0 2.621-.74l-.304-2.669c-.453.048-.983.096-1.591.143l-1.732.096c-.546.016-.99.024-1.334.024-.67 0-1.162-.088-1.474-.263-.312-.19-.476-.62-.492-1.287l3.206-.262c1.53-.111 2.676-.365 3.44-.763.78-.413 1.248-1.16 1.404-2.24.14-.937.063-1.724-.234-2.36-.28-.635-.842-1.112-1.684-1.43ZM21.145 8.3c.297-.143.687-.214 1.17-.214.593-.016.991.04 1.194.167.203.127.273.397.21.81-.062.508-.234.834-.514.977-.281.143-.694.239-1.24.286l-1.966.215c.125-.668.273-1.176.444-1.526.188-.35.422-.588.702-.715Z" clip-rule="evenodd"/>
  <path fill="#192122" d="M34.745 5.202c.593.016 1.24.048 1.942.095.702.032 1.38.088 2.036.167.655.08 1.209.167 1.661.262l-.35 2.55H37.74a109.94 109.94 0 0 0-2.2-.023c-.858 0-1.435.023-1.731.071-.297.032-.46.16-.492.382a.446.446 0 0 0 .21.476c.188.111.516.246.984.405l2.714.858c.936.286 1.623.723 2.06 1.311.452.588.624 1.367.514 2.336-.124 1.017-.429 1.78-.912 2.288-.484.509-1.14.842-1.966 1.001-.827.175-1.802.262-2.925.262-.812 0-1.67-.032-2.574-.095-.89-.064-1.912-.19-3.066-.381l.374-2.575c.234.016.57.024 1.007.024h2.855c.842 0 1.482-.016 1.919-.047.436-.032.74-.088.912-.167.172-.095.265-.223.281-.381.031-.207-.047-.358-.234-.453-.172-.096-.53-.23-1.076-.405l-2.621-.882c-1.03-.334-1.74-.827-2.13-1.478-.374-.668-.5-1.478-.374-2.431.109-.7.343-1.28.702-1.74.374-.477.944-.834 1.708-1.073.765-.238 1.786-.357 3.066-.357Zm11.398 2.55-.047-2.216H42.75L41.135 17.38h4.26l.982-7.198c.593-.46 1.1-.786 1.521-.977.437-.207.835-.318 1.194-.334.359-.031.593.04.702.215.109.159.132.453.07.882l-1.03 7.412h4.26l1.216-8.795c.156-1.112-.062-1.954-.655-2.526-.577-.572-1.35-.858-2.317-.858-.858 0-1.747.23-2.667.691-.905.445-1.748 1.065-2.528 1.86Zm21.725-.214.913-6.84h-4.259L62.229 17.38h4.259l.515-3.646c.015-.128.023-.27.023-.43.234-.079.476-.158.725-.238l.75-.286 2.035 4.6h4.376l-2.153-4.648a4.186 4.186 0 0 0-.468-.81 3.458 3.458 0 0 0-.702-.739A10.67 10.67 0 0 0 74 8.896c.718-.906 1.24-2.026 1.569-3.36H71.19c-.234 1-.748 1.938-1.544 2.812a9.73 9.73 0 0 1-2.738 2.074c.234-.477.429-.946.585-1.407.156-.476.28-.969.374-1.477Z"/>
</svg>
